<svg width="800" height="600" xmlns="http://www.w3.org/2000/svg">
 <g id="Layer_1">
  <title>Layer 1</title>
  <path d="m27.78947,26.94737c0,-0.21053 0,-0.42105 0,-0.63158c0,-0.42105 0,-0.63158 0,-1.26316c0,-0.42105 0.10237,-0.805 0.21053,-1.26316c0.09674,-0.40979 0.16216,-0.63721 0.21053,-0.84211c0.10816,-0.45816 0.37268,-0.63721 0.42105,-0.84211c0.10816,-0.45816 0.42105,-0.63158 0.42105,-0.63158c0.21053,-0.21053 0.12996,-0.22655 0.21053,-0.42105c0.11394,-0.27506 0.42105,-0.42105 0.42105,-0.63158c0,0 0.21053,-0.21053 0.21053,-0.21053c0.21053,-0.42105 0.63158,-0.8421 0.63158,-0.8421c0,-0.21053 0.14599,-0.30712 0.42105,-0.42105c0.1945,-0.08056 0.21053,0 0.42105,-0.21053c0,0 0.21053,-0.21053 0.42105,-0.42105c0.21053,-0.21053 0.84211,-0.84211 0.84211,-0.84211c0.21053,-0.21053 0.21053,-0.21053 0.21053,-0.21053c0.21053,-0.42105 0.63158,-0.63158 0.84211,-0.84211c0,0 0.06166,-0.35939 0.21053,-0.21053c0.14886,0.14886 0.16216,0.42669 0.21053,0.63158c0.10815,0.45816 0.23114,1.01567 0.63158,1.26316c0.17908,0.11068 0.42105,0.63158 0.63158,1.05263c0.21053,0.42105 0.52343,0.805 0.63158,1.26316c0.04837,0.20489 0,0.42105 0.21053,0.63158c0.21053,0.21053 0.27219,0.48271 0.42105,0.63158c0.14886,0.14886 0.12996,0.22655 0.21053,0.42105c0.11394,0.27507 0.21053,0.21053 0.21053,0.42105c0,0 0.21053,0.21053 0.21053,0.21053c0,0.21053 0.09659,0.14599 0.21053,0.42105c0.08057,0.1945 0.21053,0.42105 0.21053,0.42105c0,0 0.21053,0.21053 0.42105,0.21053c0.21053,0 0.84569,-0.12371 1.89474,-0.21053c1.27622,-0.10562 2.72378,-0.52596 4,-0.63158c0.62943,-0.05209 1.26316,-0.21053 1.68421,-0.21053c0.21053,0 0.84211,-0.21053 1.26316,-0.21053c1.26316,0 1.68421,-0.21053 2.10526,-0.21053c0.42105,0 0.84211,0 1.68421,0c1.05263,0 2.949,-0.05233 3.78947,0c3.38807,0.21093 5.47368,0.8421 6.31579,0.8421c1.68421,0 3.36842,0.21053 4.21053,0.21053c0.63158,0 1.26315,0 1.89473,0c0.84211,0 1.68421,0.21053 2.10527,0.21053c0.21053,0 0.63158,0 0.63158,0.21053c0,0 -0.14886,-0.06166 0,-0.21053c0.14886,-0.14886 0.30711,-0.14599 0.42105,-0.42105c0.08057,-0.1945 0.17952,-0.45749 0.42105,-0.63158c0.38189,-0.27525 0.42105,-0.42105 0.63158,-0.42105c0,0 0.30711,-0.14599 0.42105,-0.42105c0.08057,-0.1945 0.21053,-0.42105 0.42105,-0.63158c0.21053,-0.21053 0.35632,-0.46021 0.63158,-0.84211c0.17409,-0.24153 0.42106,-0.42105 0.42106,-0.42105c0.42105,-0.42105 0.56685,-0.88127 0.8421,-1.26316c0.34817,-0.48306 0.43707,-0.55101 0.63158,-0.63158c0.27506,-0.11394 0.55102,-0.43708 0.63158,-0.63158c0.22787,-0.55013 0.59447,-0.73395 1.05263,-0.84211c0.2049,-0.04837 0.35651,-0.30712 0.63158,-0.42105c0.1945,-0.08057 0.21053,0 0.21053,0.21053c0,0 0.21053,0.63158 0.21053,1.05263c0,0.8421 0.11378,1.906 0.21053,2.31579c0.10815,0.45816 0.24091,1.24929 0.42105,1.68421c0.25477,0.61507 0.21053,0.8421 0.42105,1.05263c0,0 0,0.42105 0,0.42105c0.21053,0.21053 0.21053,0.42105 0.21053,0.63158c0,0.21053 0.21053,0.42105 0.21053,0.63158c0,0 0,0.21053 0.21053,0.42105c0,0 0,0 0,0.21053c0,0.21053 0,0.42105 0,0.42105c0,0.21053 0.21053,0.21053 0.21053,0.42105c0,0 0,0 0,0.21053c0,0 0.24091,0.19666 0.42105,0.63158c0.25477,0.61507 0.66267,1.46177 1.05263,2.52632c0.45798,1.25025 0.44426,1.72623 1.05264,4c0.80893,3.02335 1.49378,4.41628 1.68421,5.26316c0.2355,1.04733 0.419,1.219 0.63158,2.73684c0.1168,0.83397 0,1.68421 0,2.52631c0,0.84211 0,1.68421 0,3.36842c0,0.84211 -0.10237,1.43658 -0.21053,1.89474c-0.19347,0.81958 -0.16628,1.70072 -0.42105,2.31579c-0.18015,0.43492 -0.71976,1.10665 -1.05264,2.10526c-0.06657,0.19972 -0.63158,1.26316 -1.05263,2.10526c-0.21053,0.42105 -0.63158,1.26316 -1.26316,2.31579c-0.63158,1.05264 -0.86881,1.81414 -2.10526,3.36842c-0.3707,0.46599 -0.8506,1.18891 -1.47369,1.89474c-0.50235,0.56905 -1.48272,1.20215 -1.68421,1.26316c-0.72649,0.21996 -1.23821,0.67164 -1.89474,1.05264c-0.81431,0.47256 -1.86011,0.84084 -3.78947,1.05263c-1.67416,0.18378 -10.52632,0.21053 -12.42105,0.21053c-1.68421,0 -2.30792,-0.10513 -4.42105,-0.21053c-0.63079,-0.03146 -2.52631,0 -4,-0.21053c-1.47368,-0.21053 -2.12178,-0.37681 -2.73684,-0.63158c-0.86983,-0.3603 -1.75138,-0.46585 -4,-1.47369c-2.83651,-1.27132 -3.36842,-1.89474 -4,-2.52632c-0.42105,-0.42105 -0.63158,-0.63158 -1.26316,-1.26316c-1.05263,-1.05263 -1.47368,-1.68421 -1.68421,-1.89474c-0.42105,-0.42105 -1.64103,-1.91926 -1.89474,-2.31579c-0.72652,-1.13549 -1.67842,-1.61 -1.89474,-2.52632c-0.04837,-0.2049 -0.48272,-1.11429 -0.63158,-1.26316c-0.44659,-0.44659 -0.27003,-1.22731 -0.63158,-1.89474c-0.76367,-1.40977 -0.95608,-2.04267 -1.26316,-2.73684c-0.35116,-0.79382 -0.16298,-1.27649 -0.42105,-2.10526c-0.53478,-1.7174 -1.15274,-2.65118 -1.47368,-4.42105c-0.07513,-0.4143 -0.0472,-1.03217 -0.21053,-1.47369c-0.30116,-0.8141 0.02281,-1.73696 -0.42105,-3.15789c-0.14036,-0.44934 -0.21053,-1.05263 -0.21053,-1.68421c0,-0.63158 0,-1.05264 0,-1.68421c0,-0.42105 0.10237,-0.805 0.21053,-1.26316c0.09674,-0.40979 0.31499,-0.61217 0.42105,-1.47368c0.02572,-0.20895 0.16216,-0.42669 0.21053,-0.63158c0.10816,-0.45816 0.30712,-0.56704 0.42105,-0.84211c0.08056,-0.1945 0.27219,-0.48271 0.42105,-0.63158c0.14886,-0.14886 0.30712,-0.35651 0.42105,-0.63158c0.16113,-0.389 0.21053,-0.63158 0.21053,-0.84211l0,0" id="svg_1" stroke="#000" fill="none"/>
  <path d="m42.10526,35.15789c0,0 -0.14598,-0.09659 -0.42105,-0.21053c-1.16701,-0.48339 -1.44815,-0.44659 -1.89474,0c-0.14886,0.14886 -0.22655,0.12996 -0.42105,0.21053c-0.27507,0.11394 -0.42105,0.42105 -0.63158,0.63158c0,0 -0.0494,0.24258 -0.21053,0.63158c-0.11394,0.27507 -0.21053,0.42105 -0.21053,0.63158c0,0.21053 0.21053,0.42105 0.21053,0.42105c0.21053,0.21053 0.39005,0.4575 0.63158,0.63158c0.38189,0.27525 0.77757,0.30712 1.05263,0.42105c0.389,0.16113 0.74719,-0.20109 1.47369,-0.42105c0.20149,-0.06101 0.34049,-0.22655 0.42105,-0.42105c0.11393,-0.27507 0.21053,-0.42105 0.21053,-0.84211c0,-0.21053 0,-0.42105 0,-0.63158c0,0 0.14886,-0.27219 0,-0.42105c-0.14886,-0.14886 -0.21053,0 -0.21053,0c0,-0.21053 -0.27219,-0.06166 -0.42105,-0.21053c-0.14887,-0.14887 -0.42105,-0.21053 -0.42105,-0.21053c-0.21053,0 -0.42105,0 -0.63158,-0.21053l0,0l0,0l-0.21053,0" id="svg_2" stroke="#000" fill="none"/>
  <path d="m67.36842,35.57895c0.21053,0 0.35939,-0.06166 0.21053,-0.21053c-0.14886,-0.14886 -0.6545,-0.16859 -1.26316,0c-1.18302,0.32768 -1.37877,1.04319 -2.10526,1.26316c-0.20149,0.06101 -0.29109,0.22655 -0.21053,0.42105c0.11394,0.27507 0.21053,0.42105 0.42105,0.63158c0.21053,0.21053 0.43708,0.34048 0.63158,0.42105c0.27506,0.11394 1.01552,0.3129 1.47368,0.42105c0.2049,0.04837 0.24258,0.16113 0.63158,0c0.27507,-0.11394 0.35651,-0.51764 0.63158,-0.63158c0.1945,-0.08057 0.30711,-0.14599 0.42105,-0.42105c0.08057,-0.1945 0.21053,-0.42105 0.21053,-0.63158c0,0 -0.06166,-0.06166 -0.21053,-0.21053c-0.14886,-0.14887 -0.42105,-0.42105 -0.63158,-0.63158c-0.21053,-0.21053 -0.42105,-0.21053 -0.63158,-0.21053l-0.21053,-0.21053l-0.42105,-0.21053l-0.21053,0" id="svg_3" stroke="#000" fill="none"/>
  <path d="m49.68421,43.78947c0,-0.21053 0.65061,0.02554 2.10526,-0.21053c0.65715,-0.10664 4.42105,-0.21053 5.89474,-0.21053c0.63158,0 1.26316,0 1.47368,0c0,0 0.02576,0.22442 -0.21053,0.63158c-0.38099,0.65652 -0.7117,0.79222 -1.47369,2.10526c-0.47256,0.81432 -0.8421,1.47369 -0.8421,1.68421c0,0 -0.01603,0.08057 -0.21053,0c-0.27507,-0.11394 -1.28157,-0.5882 -2.31579,-1.05263c-0.42944,-0.19284 -1.03291,-0.44283 -1.26316,-0.63158c-0.58702,-0.48124 -0.65335,-0.40133 -0.84211,-0.63158c-0.48123,-0.58702 -0.63158,-0.8421 -0.63158,-1.05263c0,0 -0.06166,-0.06166 -0.21053,-0.21053c-0.14886,-0.14886 -0.21053,0 -0.21053,0c0,0 -0.21053,-0.21053 -0.21053,-0.21053c-0.21053,0 -0.21053,0 -0.42105,0l-0.21053,0l-0.21053,-0.21053l0,0" id="svg_5" stroke="#000" fill="none"/>
  <path d="m52.21053,52.84211c0,0 0.46923,-0.57466 1.47369,-1.47369c0.22184,-0.19856 0.21053,-0.21053 0.42105,-0.42105c0,0 0,-0.42105 0,-0.42105c0.21053,-0.21053 0.12996,-0.43708 0.21053,-0.63158c0.11394,-0.27507 0.21053,-0.21053 0.21053,-0.42105c0,0 0,-0.21053 0,-0.21053c0,-0.21053 0.06166,-0.06166 0.21053,-0.21053c0.14886,-0.14886 0.01603,-0.12996 0.21053,-0.21053c0.27507,-0.11394 0.14598,-0.30712 0.42105,-0.42105c0.1945,-0.08057 0.21053,-0.21053 0.21053,-0.21053c0,0 0.21053,0 0.21053,0l0.21053,-0.21053l0,0" id="svg_6" stroke="#000" fill="none"/>
  <path d="m59.36842,52c0,-0.21053 -0.12996,-0.43708 -0.21053,-0.63158c-0.11394,-0.27507 -0.94448,-1.01553 -1.05263,-1.47368c-0.04837,-0.2049 -0.12996,-0.22655 -0.21053,-0.42105c-0.11394,-0.27507 -0.42105,-0.21053 -0.63158,-0.42105c0,0 -0.21053,-0.21053 -0.21053,-0.21053c-0.21053,0 -0.21053,0 -0.21053,0c0,0 -0.21053,0 -0.21053,-0.21053c0,0 0.14887,-0.06166 0,-0.21053c-0.14887,-0.14887 -0.21053,0 -0.21053,-0.21053c0,0 0,-0.21053 0,-0.21053c0,0 0,0 0,0l0,-0.21053" id="svg_7" stroke="#000" fill="none"/>
  <path d="m69.89474,46.52632c0.63158,-0.21053 2.74722,-0.72796 5.68421,-1.05264c4.23185,-0.46782 9.70073,-1.20348 12.8421,-2.10526c2.75231,-0.7901 4,-1.26316 4.21053,-1.26316c0.21053,0 0.42106,0 0.63158,0l0.42105,0l0,-0.21053" id="svg_8" stroke="#000" fill="none"/>
  <path d="m70.73684,52.63158c0,0 0,0 0.21053,0c1.26316,0 4.22365,0.28304 7.1579,0.63158c3.81493,0.45314 5.27299,0.75331 9.47369,1.26316c1.47781,0.17937 3.35279,0.5258 4.42105,0.63158c0.419,0.04149 0.63158,0 0.63158,0l0.21053,0" id="svg_9" stroke="#000" fill="none"/>
  <path d="m42.10526,46.31579c0,0 0.06454,-0.09659 -0.21053,-0.21053c-0.9725,-0.40282 -5.23956,0.14293 -7.36842,0.42105c-3.34656,0.43721 -6.50883,0.84178 -10.31579,1.05263c-2.10204,0.11642 -3.36842,0.21053 -5.26316,0.21053c-1.26316,0 -5.26316,0 -6.73684,0l-0.63158,0.21053l-0.21053,0" id="svg_10" stroke="#000" fill="none"/>
  <path d="m38.10526,50.94737c0,0 -0.02708,-0.04714 -0.42105,0.21053c-1.37609,0.89999 -6.34382,3.49737 -10.73684,5.05263c-3.39122,1.2006 -4.33006,1.48624 -6.52632,2.94737c-1.12234,0.74667 -1.47932,1.00426 -1.68421,1.05263c-0.45816,0.10815 -0.63158,0.42105 -0.84211,0.42105l-0.21053,0l0,0.21053l-0.21053,0" id="svg_11" stroke="#000" fill="none"/>
 </g>
</svg>