<svg width="800" height="600" xmlns="http://www.w3.org/2000/svg">
 <g id="Layer_1">
  <title>Layer 1</title>
  <path d="m147,49.5c0,0 -0.09789,-1.82443 -2,-3c-0.85065,-0.52573 -1.25658,-2.41886 -6,-4c-1.89737,-0.63245 -7.71098,-2.73339 -12,-4c-8.68461,-2.56469 -11,-1 -13,-1c-2,0 -3,0 -7,0c-2,0 -5,0 -9,0c-2,0 -5.01291,0.83982 -6,1c-3.12144,0.50654 -4.59399,2.51301 -7,4c-2.68999,1.66251 -4.1731,1.85273 -5,3c-1.30745,1.81399 -2,3 -3,5c-1,2 -2.49622,3.90779 -3,8c-0.36655,2.97752 -1,5 -1,7c0,5 0.4588,6.69344 1,8c0.38268,0.92388 0.33749,2.31001 2,5c1.48699,2.40601 5.05665,4.91753 8,7c4.0817,2.88786 7.48531,4.85114 12,7c3.72291,1.772 8.107,0.08099 12,1c2.17625,0.51374 10,1 16,1c5,0 12.03874,-1.51945 15,-2c3.12144,-0.50654 4.77025,-2.02675 5,-3c0.51375,-2.17625 1.87766,-3.066 3,-5c1.80972,-3.11848 3,-6 3,-8c0,-3 0,-6 0,-11c0,-2 0.4595,-5.0535 0,-7c-0.51375,-2.17625 -1,-3 -2,-4c0,0 -1,-1 -2,-2c-1,-1 -2,-1 -2,-2c0,0 -0.29289,-0.29289 -1,-1c-0.70711,-0.70711 -1,0 -2,-1c0,0 -1.4588,-0.69344 -2,-2c-0.38269,-0.92388 -1,-1 -2,-2c0,0 0,-1 0,-1c0,0 -1,0 -1,0c-1,-1 -2,-2 -3,-3c-1,-1 -1,-1 -1,-1l0,0l-1,0" id="svg_1" stroke="#000" fill="none"/>
  <path d="m91,50.5c0,0 1,0 6,0c1,0 3,0 4,0c0,0 1,0 2,1c0,0 1,0 1,0c1,0 1,0 2,0c0,0 0,0 0,0c1,0 1,0 1,0c0,0 1,1 1,1l0,0l1,0" id="svg_2" stroke="#000" fill="none"/>
  <path d="m122,54.5c0,0 1,0 5,0c1,0 2,0 3,1c0,0 1,0 1,0c0,1 1,1 1,1c0,1 1,1 1,1c0,0 1,1 1,1l0,0" id="svg_3" stroke="#000" fill="none"/>
  <path d="m98,58.5c0,0 0,-1 0,-1c0,0 -1,0 -2,0c-1,0 -2,0 -3,1c0,0 0,0 0,1c0,1 0.09789,1.82443 2,3c0.85065,0.52573 2,0 4,0c1,0 1.4588,-0.69344 2,-2c0.38268,-0.92388 0,-3 0,-3c0,-1 0.30656,-1.45881 -1,-2c-0.92388,-0.38268 -3,0 -6,0l-3,0l0,1" id="svg_4" stroke="#000" fill="none"/>
  <path d="m125,61.5c0,-1 0,-2 0,-2c-1,0 -1.69344,-0.54119 -3,0c-0.92388,0.38268 -1,1 -1,2c0,0 0,1 0,1c0,1 1,1 2,2c0,0 1,0 2,0c1,0 1,0 1,-1c0,-1 0.76537,-2.15224 0,-4c-0.5412,-1.30656 -1,-1 -1,-1c0,0 -1,0 -1,0l-1,0l0,0l-1,0" id="svg_5" stroke="#000" fill="none"/>
  <path d="m89,70.5c0,1 1.45049,2.45049 4,5c2.54951,2.54951 3.69344,4.4588 5,5c0.92388,0.38268 3,0 5,0c1,0 2,0 4,0c2,0 4,-1 5,-1c1,0 1.69344,-0.4588 3,-1c0.92388,-0.38268 1,0 2,0l0,-1l1,0" id="svg_6" stroke="#000" fill="none"/>
 </g>
</svg>