<svg height="480.0966pt" viewBox="0 0 480.0966 480.0966" width="480.0966pt" xmlns="http://www.w3.org/2000/svg"><g fill="#1e81ce"><path d="m171.15625 304.613281c-.96875-.40625-2.007812-.613281-3.058594-.613281h-96c-4.417968 0-8 3.578125-8 8 0 4.417969 3.582032 8 8 8h76.6875l-146.34375 146.34375c-2.078125 2.007812-2.914062 4.980469-2.179687 7.777344.730469 2.796875 2.914062 4.984375 5.710937 5.714844 2.796875.730468 5.773438-.101563 7.78125-2.183594l146.34375-146.34375v76.691406c0 4.417969 3.582032 8 8 8 4.417969 0 8-3.582031 8-8v-96c-.003906-1.050781-.214844-2.089844-.617187-3.058594-.808594-1.957031-2.367188-3.515625-4.324219-4.328125zm0 0"/><path d="m477.753906 2.34375c-3.125-3.125-8.1875-3.125-11.3125 0l-146.34375 146.34375v-76.6875c0-4.421875-3.582031-8-8-8-4.417968 0-8 3.578125-8 8v96c.003906 1.046875.214844 2.085938.617188 3.054688.8125 1.957031 2.367187 3.515624 4.328125 4.328124.96875.402344 2.007812.609376 3.054687.617188h96c4.417969 0 8-3.582031 8-8 0-4.421875-3.582031-8-8-8h-76.6875l146.34375-146.347656c3.125-3.121094 3.125-8.1875 0-11.308594zm0 0"/></g></svg>