<svg width="800" height="600" xmlns="http://www.w3.org/2000/svg">

 <g>
  <title>Layer 1</title>
  <path d="m53,60c1,1 4.22885,4.72962 9,9c2.10754,1.88634 6,6 11,11c4,4 7,7 8,8c3,3 7,7 8,8l0,0l0,0l1,1" id="svg_2" stroke="#000" fill="none"/>
  <path d="m83,65c0,1 -1.88531,2.12968 -3,3c-4.59599,3.58844 -8.82443,4.09789 -10,6c-0.52573,0.85065 -0.61732,1.07612 -1,2c-0.5412,1.30656 -1,1 -2,2c0,0 -1,1 -1,1c0,0 0,1 0,1c-1,2 -1.29289,3.29289 -2,4c-0.70711,0.70711 -1.45881,-0.30656 -2,1c-0.38268,0.92388 -1,2 -1,2c-1,1 -1,1 -1,1c0,1 0,1 0,1c0,1 -1,1 -1,2c0,0 0,0 0,0l0,1" id="svg_3" stroke="#000" fill="none"/>
 </g>
</svg>